# xmcd CD Database Entry
#
# Track frame offsets:
# 150
# 20672
# 43385
# 77957
# 107345
# 132145
# 155879
# 157280
#
# Disc length: 2433 seconds
#
# Revision: 1
# Processed by: cddbd v1.4PL0 Copyright (c) Steve Scherf et al.
# Submitted via: tcd 2.0b
#
DISCID=6c097f08
DTITLE=JR Sims - LIVE at Manilla Express
DYEAR=1900
DGENRE=
TTITLE0=Testify
TTITLE1=Cold Shot
TTITLE2=Can't Call Her Sugar
TTITLE3=Little Wing
TTITLE4=Mary Had A Little Lamb
TTITLE5=Chitlins Con Carne
TTITLE6=Fred and Don
TTITLE7=Come On Part 4
EXTD=
EXTT0=
EXTT1=
EXTT2=
EXTT3=
EXTT4=
EXTT5=
EXTT6=
EXTT7=
PLAYORDER=
